<?xml version="1.0" encoding="utf-8"?>
<!-- Generator: Adobe Illustrator 27.5.0, SVG Export Plug-In . SVG Version: 6.00 Build 0)  -->
<svg version="1.1" xmlns="http://www.w3.org/2000/svg" xmlns:xlink="http://www.w3.org/1999/xlink" x="0px" y="0px"
	 viewBox="0 0 500 500" style="enable-background:new 0 0 500 500;" xml:space="preserve">
<g id="Background_Simple">
	<g>
		<path style="fill:#C6FF00;" d="M167.186,71.918c0,0-75.766,38.605-113.558,98.099c-37.792,59.494-34.8,135.954,11.123,192.781
			c45.923,56.827,133.693,49.339,207.177,85.319c73.484,35.979,154.576,28.577,189.321-47.661
			c34.745-76.238-17.645-104.716-26.652-192.935C425.59,119.301,346.067-9.883,167.186,71.918z"/>
		<path style="opacity:0.7;fill:#FFFFFF;" d="M167.186,71.918c0,0-75.766,38.605-113.558,98.099
			c-37.792,59.494-34.8,135.954,11.123,192.781c45.923,56.827,133.693,49.339,207.177,85.319
			c73.484,35.979,154.576,28.577,189.321-47.661c34.745-76.238-17.645-104.716-26.652-192.935
			C425.59,119.301,346.067-9.883,167.186,71.918z"/>
	</g>
</g>
<g id="Boxes_2">
	<g>
		<g>
			<g>
				<g>
					<defs>
						<rect id="XMLID_7_" x="85.173" y="123" width="85.884" height="77.986"/>
					</defs>
					<use xlink:href="#XMLID_7_"  style="overflow:visible;fill:#C6FF00;"/>
					<clipPath id="XMLID_00000083078864736678728560000006033710612804489900_">
						<use xlink:href="#XMLID_7_"  style="overflow:visible;"/>
					</clipPath>
					
						<rect x="85.173" y="123" style="opacity:0.37;clip-path:url(#XMLID_00000083078864736678728560000006033710612804489900_);" width="85.884" height="77.986"/>
				</g>
				<rect x="85.173" y="123" style="fill:#C6FF00;" width="61.204" height="77.986"/>
				<rect x="108.826" y="123" style="fill:#FFFFFF;" width="13.15" height="21.772"/>
				<rect x="125.342" y="151.13" style="fill:#FFFFFF;" width="15.244" height="7.778"/>
				
					<rect x="116.508" y="176.752" transform="matrix(0.9707 0.2402 -0.2402 0.9707 47.2554 -24.61)" style="fill:#FFFFFF;" width="16.177" height="9.644"/>
			</g>
			<g>
				<g>
					<defs>
						<rect id="XMLID_8_" x="149.173" y="123" width="85.884" height="77.986"/>
					</defs>
					<use xlink:href="#XMLID_8_"  style="overflow:visible;fill:#C6FF00;"/>
					<clipPath id="XMLID_00000039105540848183724820000002699736043621827210_">
						<use xlink:href="#XMLID_8_"  style="overflow:visible;"/>
					</clipPath>
					
						<rect x="149.173" y="123" style="opacity:0.37;clip-path:url(#XMLID_00000039105540848183724820000002699736043621827210_);" width="85.884" height="77.986"/>
				</g>
				<rect x="149.173" y="123" style="fill:#C6FF00;" width="61.204" height="77.986"/>
				<rect x="172.826" y="123" style="fill:#FFFFFF;" width="13.15" height="21.772"/>
				<rect x="189.342" y="151.13" style="fill:#FFFFFF;" width="15.244" height="7.778"/>
				
					<rect x="180.508" y="176.752" transform="matrix(0.9707 0.2402 -0.2402 0.9707 49.1286 -39.9808)" style="fill:#FFFFFF;" width="16.177" height="9.644"/>
			</g>
			<g>
				<g>
					<defs>
						<rect id="XMLID_9_" x="213.173" y="123" width="85.884" height="77.986"/>
					</defs>
					<use xlink:href="#XMLID_9_"  style="overflow:visible;fill:#C6FF00;"/>
					<clipPath id="XMLID_00000138549306705110039700000012872306975663762621_">
						<use xlink:href="#XMLID_9_"  style="overflow:visible;"/>
					</clipPath>
					
						<rect x="213.173" y="123" style="opacity:0.37;clip-path:url(#XMLID_00000138549306705110039700000012872306975663762621_);" width="85.884" height="77.986"/>
				</g>
				<rect x="213.173" y="123" style="fill:#C6FF00;" width="61.204" height="77.986"/>
				<rect x="236.826" y="123" style="fill:#FFFFFF;" width="13.15" height="21.772"/>
				<rect x="253.342" y="151.13" style="fill:#FFFFFF;" width="15.244" height="7.778"/>
				
					<rect x="244.508" y="176.752" transform="matrix(0.9707 0.2402 -0.2402 0.9707 51.0019 -55.3517)" style="fill:#FFFFFF;" width="16.177" height="9.644"/>
			</g>
			<g>
				<g>
					<defs>
						<rect id="XMLID_10_" x="277.173" y="123" width="85.884" height="77.986"/>
					</defs>
					<use xlink:href="#XMLID_10_"  style="overflow:visible;fill:#C6FF00;"/>
					<clipPath id="XMLID_00000052826395365610543900000004623739699149947787_">
						<use xlink:href="#XMLID_10_"  style="overflow:visible;"/>
					</clipPath>
					
						<rect x="277.173" y="123" style="opacity:0.37;clip-path:url(#XMLID_00000052826395365610543900000004623739699149947787_);" width="85.884" height="77.986"/>
				</g>
				<rect x="277.173" y="123" style="fill:#C6FF00;" width="61.204" height="77.986"/>
				<rect x="300.826" y="123" style="fill:#FFFFFF;" width="13.15" height="21.772"/>
				<rect x="317.342" y="151.13" style="fill:#FFFFFF;" width="15.244" height="7.778"/>
				
					<rect x="308.508" y="176.752" transform="matrix(0.9707 0.2402 -0.2402 0.9707 52.8751 -70.7226)" style="fill:#FFFFFF;" width="16.177" height="9.644"/>
			</g>
		</g>
		<g>
			<g>
				<g>
					<defs>
						<rect id="XMLID_14_" x="85.173" y="230" width="85.884" height="77.986"/>
					</defs>
					<use xlink:href="#XMLID_14_"  style="overflow:visible;fill:#C6FF00;"/>
					<clipPath id="XMLID_00000075131471130904007590000012864031689401273478_">
						<use xlink:href="#XMLID_14_"  style="overflow:visible;"/>
					</clipPath>
					
						<rect x="85.173" y="230" style="opacity:0.37;clip-path:url(#XMLID_00000075131471130904007590000012864031689401273478_);" width="85.884" height="77.986"/>
				</g>
				<rect x="85.173" y="230" style="fill:#C6FF00;" width="61.204" height="77.986"/>
				<rect x="108.826" y="230" style="fill:#FFFFFF;" width="13.15" height="21.772"/>
				<rect x="125.342" y="258.13" style="fill:#FFFFFF;" width="15.244" height="7.778"/>
				
					<rect x="116.508" y="283.752" transform="matrix(0.9707 0.2402 -0.2402 0.9707 72.9536 -21.4782)" style="fill:#FFFFFF;" width="16.177" height="9.644"/>
			</g>
			<g>
				<g>
					<defs>
						<rect id="XMLID_13_" x="149.173" y="230" width="85.884" height="77.986"/>
					</defs>
					<use xlink:href="#XMLID_13_"  style="overflow:visible;fill:#C6FF00;"/>
					<clipPath id="XMLID_00000080884932484570994180000013442731043011454339_">
						<use xlink:href="#XMLID_13_"  style="overflow:visible;"/>
					</clipPath>
					
						<rect x="149.173" y="230" style="opacity:0.37;clip-path:url(#XMLID_00000080884932484570994180000013442731043011454339_);" width="85.884" height="77.986"/>
				</g>
				<rect x="149.173" y="230" style="fill:#C6FF00;" width="61.204" height="77.986"/>
				<rect x="172.826" y="230" style="fill:#FFFFFF;" width="13.15" height="21.772"/>
				<rect x="189.342" y="258.13" style="fill:#FFFFFF;" width="15.244" height="7.778"/>
				
					<rect x="180.508" y="283.752" transform="matrix(0.9707 0.2402 -0.2402 0.9707 74.8268 -36.849)" style="fill:#FFFFFF;" width="16.177" height="9.644"/>
			</g>
			<g>
				<g>
					<defs>
						<rect id="XMLID_12_" x="213.173" y="230" width="85.884" height="77.986"/>
					</defs>
					<use xlink:href="#XMLID_12_"  style="overflow:visible;fill:#C6FF00;"/>
					<clipPath id="XMLID_00000179620950681884869560000003577236747092068775_">
						<use xlink:href="#XMLID_12_"  style="overflow:visible;"/>
					</clipPath>
					
						<rect x="213.173" y="230" style="opacity:0.37;clip-path:url(#XMLID_00000179620950681884869560000003577236747092068775_);" width="85.884" height="77.986"/>
				</g>
				<rect x="213.173" y="230" style="fill:#C6FF00;" width="61.204" height="77.986"/>
				<rect x="236.826" y="230" style="fill:#FFFFFF;" width="13.15" height="21.772"/>
				<rect x="253.342" y="258.13" style="fill:#FFFFFF;" width="15.244" height="7.778"/>
				
					<rect x="244.508" y="283.752" transform="matrix(0.9707 0.2402 -0.2402 0.9707 76.7001 -52.2199)" style="fill:#FFFFFF;" width="16.177" height="9.644"/>
			</g>
			<g>
				<g>
					<defs>
						<rect id="XMLID_11_" x="277.173" y="230" width="85.884" height="77.986"/>
					</defs>
					<use xlink:href="#XMLID_11_"  style="overflow:visible;fill:#C6FF00;"/>
					<clipPath id="XMLID_00000176731636659944070180000015013460907849960596_">
						<use xlink:href="#XMLID_11_"  style="overflow:visible;"/>
					</clipPath>
					
						<rect x="277.173" y="230" style="opacity:0.37;clip-path:url(#XMLID_00000176731636659944070180000015013460907849960596_);" width="85.884" height="77.986"/>
				</g>
				<rect x="277.173" y="230" style="fill:#C6FF00;" width="61.204" height="77.986"/>
				<rect x="300.826" y="230" style="fill:#FFFFFF;" width="13.15" height="21.772"/>
				<rect x="317.342" y="258.13" style="fill:#FFFFFF;" width="15.244" height="7.778"/>
				
					<rect x="308.508" y="283.752" transform="matrix(0.9707 0.2402 -0.2402 0.9707 78.5733 -67.5908)" style="fill:#FFFFFF;" width="16.177" height="9.644"/>
			</g>
		</g>
		<g>
			<g>
				<g>
					<defs>
						<rect id="XMLID_18_" x="85.173" y="337" width="85.884" height="77.986"/>
					</defs>
					<use xlink:href="#XMLID_18_"  style="overflow:visible;fill:#C6FF00;"/>
					<clipPath id="XMLID_00000139287261585047897180000000258952021455437477_">
						<use xlink:href="#XMLID_18_"  style="overflow:visible;"/>
					</clipPath>
					
						<rect x="85.173" y="337" style="opacity:0.37;clip-path:url(#XMLID_00000139287261585047897180000000258952021455437477_);" width="85.884" height="77.986"/>
				</g>
				<rect x="85.173" y="337" style="fill:#C6FF00;" width="61.204" height="77.986"/>
				<rect x="108.826" y="337" style="fill:#FFFFFF;" width="13.15" height="21.772"/>
				<rect x="125.342" y="365.13" style="fill:#FFFFFF;" width="15.244" height="7.778"/>
				
					<rect x="116.508" y="390.752" transform="matrix(0.9707 0.2402 -0.2402 0.9707 98.6518 -18.3464)" style="fill:#FFFFFF;" width="16.177" height="9.644"/>
			</g>
			<g>
				<g>
					<defs>
						<rect id="XMLID_17_" x="149.173" y="337" width="85.884" height="77.986"/>
					</defs>
					<use xlink:href="#XMLID_17_"  style="overflow:visible;fill:#C6FF00;"/>
					<clipPath id="XMLID_00000098920755258379861540000001627472726101046696_">
						<use xlink:href="#XMLID_17_"  style="overflow:visible;"/>
					</clipPath>
					
						<rect x="149.173" y="337" style="opacity:0.37;clip-path:url(#XMLID_00000098920755258379861540000001627472726101046696_);" width="85.884" height="77.986"/>
				</g>
				<rect x="149.173" y="337" style="fill:#C6FF00;" width="61.204" height="77.986"/>
				<rect x="172.826" y="337" style="fill:#FFFFFF;" width="13.15" height="21.772"/>
				<rect x="189.342" y="365.13" style="fill:#FFFFFF;" width="15.244" height="7.778"/>
				
					<rect x="180.508" y="390.752" transform="matrix(0.9707 0.2402 -0.2402 0.9707 100.525 -33.7172)" style="fill:#FFFFFF;" width="16.177" height="9.644"/>
			</g>
			<g>
				<g>
					<defs>
						<rect id="XMLID_16_" x="213.173" y="337" width="85.884" height="77.986"/>
					</defs>
					<use xlink:href="#XMLID_16_"  style="overflow:visible;fill:#C6FF00;"/>
					<clipPath id="XMLID_00000139975582329227308890000015173060056817449865_">
						<use xlink:href="#XMLID_16_"  style="overflow:visible;"/>
					</clipPath>
					
						<rect x="213.173" y="337" style="opacity:0.37;clip-path:url(#XMLID_00000139975582329227308890000015173060056817449865_);" width="85.884" height="77.986"/>
				</g>
				<rect x="213.173" y="337" style="fill:#C6FF00;" width="61.204" height="77.986"/>
				<rect x="236.826" y="337" style="fill:#FFFFFF;" width="13.15" height="21.772"/>
				<rect x="253.342" y="365.13" style="fill:#FFFFFF;" width="15.244" height="7.778"/>
				
					<rect x="244.508" y="390.752" transform="matrix(0.9707 0.2402 -0.2402 0.9707 102.3982 -49.0881)" style="fill:#FFFFFF;" width="16.177" height="9.644"/>
			</g>
			<g>
				<g>
					<defs>
						<rect id="XMLID_15_" x="277.173" y="337" width="85.884" height="77.986"/>
					</defs>
					<use xlink:href="#XMLID_15_"  style="overflow:visible;fill:#C6FF00;"/>
					<clipPath id="XMLID_00000121993914726414921950000009260503418867286150_">
						<use xlink:href="#XMLID_15_"  style="overflow:visible;"/>
					</clipPath>
					
						<rect x="277.173" y="337" style="opacity:0.37;clip-path:url(#XMLID_00000121993914726414921950000009260503418867286150_);" width="85.884" height="77.986"/>
				</g>
				<rect x="277.173" y="337" style="fill:#C6FF00;" width="61.204" height="77.986"/>
				<rect x="300.826" y="337" style="fill:#FFFFFF;" width="13.15" height="21.772"/>
				<rect x="317.342" y="365.13" style="fill:#FFFFFF;" width="15.244" height="7.778"/>
				
					<rect x="308.508" y="390.752" transform="matrix(0.9707 0.2402 -0.2402 0.9707 104.2715 -64.459)" style="fill:#FFFFFF;" width="16.177" height="9.644"/>
			</g>
		</g>
		<g>
			<rect x="71" y="94.335" style="fill:#A3A3A3;" width="300" height="14"/>
			<rect x="71" y="198.335" style="fill:#A3A3A3;" width="300" height="14"/>
			<rect x="71" y="302.335" style="fill:#A3A3A3;" width="300" height="14"/>
			<rect x="71" y="406.335" style="fill:#A3A3A3;" width="300" height="14"/>
			<rect x="415" y="35.335" style="fill:#7A7A7A;" width="13" height="425"/>
			<rect x="138" y="35.335" style="fill:#7A7A7A;" width="13" height="425"/>
			<rect x="364" y="94.335" style="fill:#757575;" width="61" height="14"/>
			<rect x="364" y="198.335" style="fill:#757575;" width="61" height="14"/>
			<rect x="364" y="302.335" style="fill:#757575;" width="61" height="14"/>
			<rect x="364" y="406.335" style="fill:#757575;" width="61" height="14"/>
			<rect x="70" y="35.335" style="fill:#A3A3A3;" width="13" height="425"/>
			<rect x="214" y="35.335" style="fill:#A3A3A3;" width="13" height="425"/>
			<rect x="358" y="35.335" style="fill:#A3A3A3;" width="13" height="425"/>
		</g>
	</g>
</g>
<g id="Boxes_1">
	<g>
		<g>
			<defs>
				<rect id="XMLID_6_" x="242.71" y="183.048" width="102.024" height="92.642"/>
			</defs>
			<use xlink:href="#XMLID_6_"  style="overflow:visible;fill:#C6FF00;"/>
			<clipPath id="XMLID_00000057842088616177374780000004935079722477716150_">
				<use xlink:href="#XMLID_6_"  style="overflow:visible;"/>
			</clipPath>
			
				<rect x="242.71" y="183.048" style="opacity:0.37;clip-path:url(#XMLID_00000057842088616177374780000004935079722477716150_);" width="102.024" height="92.642"/>
			
				<use xlink:href="#XMLID_6_"  style="overflow:visible;fill:none;stroke:#263238;stroke-linecap:round;stroke-linejoin:round;stroke-miterlimit:10;"/>
		</g>
		
			<rect x="242.71" y="183.048" style="fill:#C6FF00;stroke:#263238;stroke-linecap:round;stroke-linejoin:round;stroke-miterlimit:10;" width="72.707" height="92.642"/>
		
			<rect x="270.808" y="183.048" style="fill:#FFFFFF;stroke:#263238;stroke-linecap:round;stroke-linejoin:round;stroke-miterlimit:10;" width="15.621" height="25.864"/>
		<rect x="290.429" y="216.465" style="fill:#FFFFFF;" width="18.109" height="9.239"/>
		
			<rect x="279.935" y="246.901" transform="matrix(0.9707 0.2402 -0.2402 0.9707 69.1489 -62.1456)" style="fill:#FFFFFF;" width="19.218" height="11.457"/>
	</g>
	<g>
		<g>
			<defs>
				<rect id="XMLID_1_" x="181.353" y="367.693" width="102.024" height="92.642"/>
			</defs>
			<use xlink:href="#XMLID_1_"  style="overflow:visible;fill:#C6FF00;"/>
			<clipPath id="XMLID_00000083057380110688233960000005261968780623560847_">
				<use xlink:href="#XMLID_1_"  style="overflow:visible;"/>
			</clipPath>
			
				<rect x="181.353" y="367.693" style="opacity:0.37;clip-path:url(#XMLID_00000083057380110688233960000005261968780623560847_);" width="102.024" height="92.642"/>
			
				<use xlink:href="#XMLID_1_"  style="overflow:visible;fill:none;stroke:#263238;stroke-linecap:round;stroke-linejoin:round;stroke-miterlimit:10;"/>
		</g>
		
			<rect x="181.353" y="367.693" style="fill:#C6FF00;stroke:#263238;stroke-linecap:round;stroke-linejoin:round;stroke-miterlimit:10;" width="72.707" height="92.642"/>
		
			<rect x="209.45" y="367.693" style="fill:#FFFFFF;stroke:#263238;stroke-linecap:round;stroke-linejoin:round;stroke-miterlimit:10;" width="15.621" height="25.864"/>
		<rect x="188.419" y="443.61" style="fill:#FFFFFF;" width="18.109" height="9.239"/>
		
			<rect x="224.267" y="398.522" transform="matrix(0.9707 0.2402 -0.2402 0.9707 103.9351 -44.338)" style="fill:#FFFFFF;" width="19.217" height="11.457"/>
	</g>
	<g>
		<g>
			<defs>
				<rect id="XMLID_2_" x="256.375" y="367.693" width="102.024" height="92.642"/>
			</defs>
			<use xlink:href="#XMLID_2_"  style="overflow:visible;fill:#C6FF00;"/>
			<clipPath id="XMLID_00000153691028384966708600000011281545362857637048_">
				<use xlink:href="#XMLID_2_"  style="overflow:visible;"/>
			</clipPath>
			
				<rect x="256.375" y="367.693" style="opacity:0.37;clip-path:url(#XMLID_00000153691028384966708600000011281545362857637048_);" width="102.024" height="92.642"/>
			
				<use xlink:href="#XMLID_2_"  style="overflow:visible;fill:none;stroke:#263238;stroke-linecap:round;stroke-linejoin:round;stroke-miterlimit:10;"/>
		</g>
		
			<rect x="256.375" y="367.693" style="fill:#C6FF00;stroke:#263238;stroke-linecap:round;stroke-linejoin:round;stroke-miterlimit:10;" width="72.707" height="92.642"/>
		
			<rect x="284.473" y="367.693" style="fill:#FFFFFF;stroke:#263238;stroke-linecap:round;stroke-linejoin:round;stroke-miterlimit:10;" width="15.621" height="25.864"/>
		<rect x="304.093" y="401.109" style="fill:#FFFFFF;" width="18.109" height="9.239"/>
		
			<rect x="261.593" y="392.24" transform="matrix(0.9707 0.2402 -0.2402 0.9707 103.5187 -53.4867)" style="fill:#FFFFFF;" width="19.217" height="11.457"/>
	</g>
	<g>
		<g>
			<defs>
				<rect id="XMLID_4_" x="332.375" y="367.693" width="102.024" height="92.642"/>
			</defs>
			<use xlink:href="#XMLID_4_"  style="overflow:visible;fill:#C6FF00;"/>
			<clipPath id="XMLID_00000101092641759477212670000014376388188915754880_">
				<use xlink:href="#XMLID_4_"  style="overflow:visible;"/>
			</clipPath>
			
				<rect x="332.375" y="367.693" style="opacity:0.37;clip-path:url(#XMLID_00000101092641759477212670000014376388188915754880_);" width="102.024" height="92.642"/>
			
				<use xlink:href="#XMLID_4_"  style="overflow:visible;fill:none;stroke:#263238;stroke-linecap:round;stroke-linejoin:round;stroke-miterlimit:10;"/>
		</g>
		
			<rect x="332.375" y="367.693" style="fill:#C6FF00;stroke:#263238;stroke-linecap:round;stroke-linejoin:round;stroke-miterlimit:10;" width="72.707" height="92.642"/>
		
			<rect x="360.473" y="367.693" style="fill:#FFFFFF;stroke:#263238;stroke-linecap:round;stroke-linejoin:round;stroke-miterlimit:10;" width="15.621" height="25.864"/>
		<rect x="380.093" y="401.109" style="fill:#FFFFFF;" width="18.109" height="9.239"/>
		
			<rect x="337.593" y="392.24" transform="matrix(0.9707 0.2402 -0.2402 0.9707 105.7432 -71.7397)" style="fill:#FFFFFF;" width="19.217" height="11.457"/>
	</g>
	<g>
		<g>
			<defs>
				<rect id="XMLID_3_" x="216.527" y="275.301" width="102.024" height="92.642"/>
			</defs>
			<use xlink:href="#XMLID_3_"  style="overflow:visible;fill:#C6FF00;"/>
			<clipPath id="XMLID_00000034774498292229998840000002720901990774016652_">
				<use xlink:href="#XMLID_3_"  style="overflow:visible;"/>
			</clipPath>
			
				<rect x="216.527" y="275.301" style="opacity:0.37;clip-path:url(#XMLID_00000034774498292229998840000002720901990774016652_);" width="102.024" height="92.642"/>
			
				<use xlink:href="#XMLID_3_"  style="overflow:visible;fill:none;stroke:#263238;stroke-linecap:round;stroke-linejoin:round;stroke-miterlimit:10;"/>
		</g>
		
			<rect x="216.527" y="275.301" style="fill:#C6FF00;stroke:#263238;stroke-linecap:round;stroke-linejoin:round;stroke-miterlimit:10;" width="72.707" height="92.642"/>
		
			<rect x="244.624" y="275.301" style="fill:#FFFFFF;stroke:#263238;stroke-linecap:round;stroke-linejoin:round;stroke-miterlimit:10;" width="15.621" height="25.864"/>
		<rect x="264.245" y="308.718" style="fill:#FFFFFF;" width="18.109" height="9.239"/>
		
			<rect x="221.745" y="299.848" transform="matrix(0.9707 0.2402 -0.2402 0.9707 80.1607 -46.6198)" style="fill:#FFFFFF;" width="19.217" height="11.457"/>
	</g>
	<g>
		<g>
			<defs>
				<rect id="XMLID_5_" x="297.527" y="275.301" width="102.024" height="92.642"/>
			</defs>
			<use xlink:href="#XMLID_5_"  style="overflow:visible;fill:#C6FF00;"/>
			<clipPath id="XMLID_00000082367820110730842190000010011220923381376394_">
				<use xlink:href="#XMLID_5_"  style="overflow:visible;"/>
			</clipPath>
			
				<rect x="297.527" y="275.301" style="opacity:0.37;clip-path:url(#XMLID_00000082367820110730842190000010011220923381376394_);" width="102.024" height="92.642"/>
			
				<use xlink:href="#XMLID_5_"  style="overflow:visible;fill:none;stroke:#263238;stroke-linecap:round;stroke-linejoin:round;stroke-miterlimit:10;"/>
		</g>
		
			<rect x="297.527" y="275.301" style="fill:#C6FF00;stroke:#263238;stroke-linecap:round;stroke-linejoin:round;stroke-miterlimit:10;" width="72.707" height="92.642"/>
		
			<rect x="325.624" y="275.301" style="fill:#FFFFFF;stroke:#263238;stroke-linecap:round;stroke-linejoin:round;stroke-miterlimit:10;" width="15.621" height="25.864"/>
		<rect x="345.245" y="308.718" style="fill:#FFFFFF;" width="18.109" height="9.239"/>
		
			<rect x="307.237" y="321.747" transform="matrix(0.9707 0.2402 -0.2402 0.9707 87.9243 -66.5124)" style="fill:#FFFFFF;" width="19.217" height="11.457"/>
	</g>
</g>
<g id="Floor">
	
		<line style="fill:none;stroke:#263238;stroke-linecap:round;stroke-linejoin:round;stroke-miterlimit:10;" x1="38.399" y1="460.335" x2="476.399" y2="460.335"/>
</g>
<g id="Character">
	<g>
		<g>
			<path style="fill:#FFFFFF;stroke:#263238;stroke-linecap:round;stroke-linejoin:round;stroke-miterlimit:10;" d="
				M116.198,430.467c0,0-4.185,8.57-7.175,13.354c-2.99,4.783-8.57,11.161-7.972,16.742c0.598,5.581,6.378,6.178,12.357,2.99
				c5.979-3.189,11.361-9.567,12.955-14.35c1.594-4.783,6.776-8.77,6.776-14.151c0-5.381-0.399-5.979-2.392-6.577
				C128.754,427.876,118.191,427.079,116.198,430.467z"/>
			<path style="fill:#263238;stroke:#263238;stroke-linecap:round;stroke-linejoin:round;stroke-miterlimit:10;" d="
				M133.139,435.051c0-0.792-0.01-1.469-0.031-2.069c-0.495,1.511-1.145,3.226-1.962,4.86c-2.192,4.385-5.381,6.976-6.577,12.357
				c-1.196,5.381-8.77,11.56-15.347,13.154c-6.577,1.594-7.972-3.787-7.972-3.787l-0.24-0.023c-0.007,0.343,0.004,0.683,0.04,1.02
				c0.598,5.581,6.378,6.178,12.357,2.99c5.979-3.189,11.36-9.567,12.955-14.35C127.957,444.419,133.139,440.433,133.139,435.051z"
				/>
			<path style="fill:none;stroke:#263238;stroke-linecap:round;stroke-linejoin:round;stroke-miterlimit:10;" d="M116.995,434.055
				c0,0,2.392,3.388,10.364,2.392"/>
			<path style="fill:none;stroke:#263238;stroke-linecap:round;stroke-linejoin:round;stroke-miterlimit:10;" d="M116.796,436.845
				c0,0,2.99,2.79,8.371,2.392"/>
			<path style="fill:none;stroke:#263238;stroke-linecap:round;stroke-linejoin:round;stroke-miterlimit:10;" d="M115.998,439.237
				c0,0,2.392,2.99,6.976,2.591"/>
			<path style="fill:none;stroke:#263238;stroke-linecap:round;stroke-linejoin:round;stroke-miterlimit:10;" d="M115.201,442.625
				c0,0,1.395,2.79,6.776,2.192"/>
		</g>
		<g>
			<path style="fill:#FFFFFF;stroke:#263238;stroke-miterlimit:10;" d="M167.22,438.041c0,0,4.186,7.175,11.958,11.361
				c7.773,4.185,17.738,6.976,18.536,8.969s-0.199,3.587-1.196,4.185c-0.997,0.598-15.745,0.997-23.518-0.399
				c-7.773-1.395-9.766-1.196-13.354-1.196c-3.587,0-11.36,0.996-12.357-3.388c-0.997-4.385,1.594-20.329,1.594-20.329
				S160.643,440.632,167.22,438.041z"/>
			<path style="fill:#263238;stroke:#263238;stroke-miterlimit:10;" d="M196.518,462.556c0.821-0.492,1.625-1.667,1.444-3.177
				c-2.038,0.514-5.189,1.16-9.416,1.583c-7.972,0.797-19.931-1.794-29.298-2.192c-6.883-0.293-10.636-1.874-12.148-2.694
				c0.036,0.584,0.097,1.091,0.189,1.498c0.997,4.385,8.77,3.388,12.357,3.388c3.588,0,5.581-0.199,13.354,1.196
				C180.773,463.552,195.522,463.154,196.518,462.556z"/>
			<path style="fill:none;stroke:#263238;stroke-miterlimit:10;" d="M170.21,442.625c0,0-2.392,1.794-3.587,4.584"/>
			<path style="fill:none;stroke:#263238;stroke-miterlimit:10;" d="M172.602,445.615c0,0-2.591,2.192-2.591,3.587"/>
			<path style="fill:none;stroke:#263238;stroke-miterlimit:10;" d="M175.192,447.608c0,0-1.196,1.993-1.594,3.588"/>
			<path style="fill:none;stroke:#263238;stroke-miterlimit:10;" d="M179.179,449.401c0,0-1.594,1.395-1.594,2.79"/>
		</g>
		<g>
			<path style="fill:#263238;stroke:#263238;stroke-linecap:round;stroke-linejoin:round;stroke-miterlimit:10;" d="
				M110.928,226.333c0,0-6.333,30.167-5.833,46.667s23,57.5,23,57.5s-12,29.5-12.5,42.5s0.516,54.852,0.516,54.852
				s5.027,2.9,9.527,2.9s9.941-2.278,9.941-2.278l11.516-44.973l0.5,54.5c0,0,4.5,3,11,3s11-3.5,11-3.5s8-57.5,9-67s7.5-38,8-40
				s10-33.5,10-59s-7.333-40.833-7.333-40.833S163.595,225,144.595,224.5S110.928,226.333,110.928,226.333z"/>
			<path style="fill:none;stroke:#878787;stroke-miterlimit:10;" d="M150.595,376c0,0,13-37,13-46s-8.5-65-8.5-65"/>
			<path style="fill:none;stroke:#878787;stroke-miterlimit:10;" d="M158.595,282c0,0,7.5-8.5,10-13.5"/>
		</g>
		<path style="fill:#FFFFFF;stroke:#263238;stroke-linecap:round;stroke-linejoin:round;stroke-miterlimit:10;" d="M188.261,149.667
			c0,0,10.333,6,16,15s18,47,17.333,56.667c-0.667,9.667-3.667,12.333-12.333,10.667s-9.333-11.333-11.333-19.333
			S185.261,154,185.261,154l-0.333-4.667L188.261,149.667z"/>
		<path style="fill:#CFCFCF;stroke:#263238;stroke-linecap:round;stroke-linejoin:round;stroke-miterlimit:10;" d="M221.595,221.333
			c0.34-4.925-2.696-17.202-6.504-29.253L194,195.033c1.772,8.197,3.291,15.084,3.928,17.633c2,8,2.667,17.667,11.333,19.333
			C217.928,233.667,220.928,231,221.595,221.333z"/>
		<path style="fill:#FFFFFF;stroke:#263238;stroke-linecap:round;stroke-linejoin:round;stroke-miterlimit:10;" d="M119.261,146.667
			c0,0-8,1.667-10,15.667s2.667,37,2.667,37l-1,27c0,0,33.333,8.667,47,8.667c13.667,0,31.333-4.333,31.333-4.333
			s-7.333-67.333-8.667-73c-1.333-5.667-7.333-11.333-12.333-15c-5-3.667-17.667-3.333-25-1.333c-7.333,2-17.667,6-17.667,6
			L119.261,146.667z"/>
		<path style="fill:#C6FF00;stroke:#263238;stroke-linecap:round;stroke-linejoin:round;stroke-miterlimit:10;" d="M143.261,137.333
			c0,0,7,28.333,7.667,47.667c0.667,19.333-3,79.333-3,79.333s-15.667,0.667-27-1.333c-11.333-2-19.333-3-19.333-3l10-62.333
			c0,0,13.667,1,16.667-8.667c3-9.667-1-29-4.667-35c-3.667-6-4.333-7.333-4.333-7.333L143.261,137.333z"/>
		<path style="fill:#C6FF00;stroke:#263238;stroke-linecap:round;stroke-linejoin:round;stroke-miterlimit:10;" d="M173.595,163.667
			c0,0,7.333,28,6.667,56c-0.667,28-1,43-1,43s16-1,25-4.667c0,0-5-65.333-9.667-84.667c-4.667-19.333-6.333-23.667-6.333-23.667
			L169.595,142L173.595,163.667z"/>
		<path style="fill:#FFFFFF;stroke:#263238;stroke-linecap:round;stroke-linejoin:round;stroke-miterlimit:10;" d="M150.439,131.894
			c0,0-7.019,1.3-8.839,4.939c-1.82,3.639,7.279,33.535,7.279,33.535l13.258-10.918l16.378,9.359c0,0-3.12-22.617-9.879-30.416
			C161.878,130.594,150.439,131.894,150.439,131.894z"/>
		<path style="fill:#CFCFCF;stroke:#263238;stroke-linecap:round;stroke-linejoin:round;stroke-miterlimit:10;" d="M147.58,112.916
			c0,0-0.26,26.256,2.6,33.015c2.86,6.759,10.399,16.638,13.258,15.078c2.86-1.56,3.64-20.537,4.159-21.837
			c0.52-1.3,2.6-11.958,2.6-11.958S151.479,122.015,147.58,112.916z"/>
		<path style="fill:#263238;stroke:#263238;stroke-linecap:round;stroke-linejoin:round;stroke-miterlimit:10;" d="M147.58,112.916
			c0,0-0.103,10.539,0.548,19.983c2.992,3.389,6.827,5.776,11.764,6.443c2.822,0.381,5.389,0.348,7.686-0.103
			c0.006-0.021,0.013-0.051,0.019-0.067c0.52-1.3,2.6-11.958,2.6-11.958S151.479,122.015,147.58,112.916z"/>
		<g>
			<path style="fill:#FFFFFF;stroke:#263238;stroke-linecap:round;stroke-linejoin:round;stroke-miterlimit:10;" d="M176.832,203.24
				l-1.99,1.218l-11.571-18.907c-0.336-0.55-0.163-1.268,0.386-1.604l0,0c0.55-0.336,1.268-0.163,1.604,0.386L176.832,203.24z"/>
			<g>
				<path style="fill:#FFFFFF;stroke:#263238;stroke-linecap:round;stroke-linejoin:round;stroke-miterlimit:10;" d="
					M119.261,146.667c0,0-7.667,0.667-12.333,9.667c-4.667,9-12,51.333-13.333,63.667c-1.333,12.333,6,11.333,7,11.333
					c1,0,54-17.667,54-17.667l18-2c0,0-2,1.667-0.333,1.667c1.667,0,5-3.333,6.333-5.333c1.333-2-4-13-6-14.333
					c-2-1.333-20,12-20,12l-35,2.333l9-30.667"/>
				<path style="fill:#CFCFCF;stroke:#263238;stroke-linecap:round;stroke-linejoin:round;stroke-miterlimit:10;" d="
					M172.595,193.667c-2-1.333-20,12-20,12l-35,2.333l2.219-7.562l-22.39-5.049c-1.852,10.273-3.305,19.762-3.83,24.61
					c-1.333,12.333,6,11.333,7,11.333c1,0,54-17.667,54-17.667l18-2c0,0-2,1.667-0.333,1.667c1.667,0,5-3.333,6.333-5.333
					C179.928,206,174.595,195,172.595,193.667z"/>
				<path style="fill:#666666;stroke:#263238;stroke-linecap:round;stroke-linejoin:round;stroke-miterlimit:10;" d="
					M172.595,193.667c-2-1.333-20,12-20,12l-5.108,0.34c0.049,2.796,0.558,6.25,2.315,9.255c2.971-0.988,4.793-1.596,4.793-1.596
					l18-2c0,0-2,1.667-0.333,1.667c1.667,0,5-3.333,6.333-5.333C179.928,206,174.595,195,172.595,193.667z"/>
			</g>
		</g>
		<g>
			<g>
				<polygon style="fill:#263238;stroke:#263238;stroke-linecap:round;stroke-linejoin:round;stroke-miterlimit:10;" points="
					190.261,178 156.261,225.667 200.928,224 233.261,180 				"/>
				<polygon style="fill:#263238;stroke:#263238;stroke-linecap:round;stroke-linejoin:round;stroke-miterlimit:10;" points="
					205.267,176.601 202.66,180.945 222.21,181.38 224.816,177.036 				"/>
			</g>
			<g>
				<path style="fill:#666666;stroke:#263238;stroke-linecap:round;stroke-linejoin:round;stroke-miterlimit:10;" d="
					M218.479,205.054c0,0-2.745,1.007-4.758,1.098c-2.013,0.092-3.843,1.098-3.843,2.105c0,1.007,3.569,1.19,6.131,1.19
					c2.562,0,4.575-0.549,5.033-2.196C221.498,205.603,220.858,204.139,218.479,205.054z"/>
				<path style="fill:#666666;stroke:#263238;stroke-linecap:round;stroke-linejoin:round;stroke-miterlimit:10;" d="
					M220.785,200.583c0,0-3.481,1.276-6.034,1.392c-2.553,0.116-4.873,1.392-4.873,2.669c0,1.276,4.525,1.508,7.774,1.508
					c3.249,0,5.801-0.696,6.382-2.785C224.614,201.28,223.801,199.423,220.785,200.583z"/>
				<path style="fill:#666666;stroke:#263238;stroke-linecap:round;stroke-linejoin:round;stroke-miterlimit:10;" d="
					M222.629,196.764c0,0-3.481,1.276-6.034,1.392c-2.553,0.116-4.873,1.392-4.873,2.669s4.525,1.508,7.774,1.508
					s5.801-0.696,6.382-2.785C226.458,197.46,225.645,195.603,222.629,196.764z"/>
				<path style="fill:#666666;stroke:#263238;stroke-linecap:round;stroke-linejoin:round;stroke-miterlimit:10;" d="
					M223.884,192.436c0,0-3.481,1.276-6.034,1.392c-2.553,0.116-4.873,1.392-4.873,2.669c0,1.276,4.525,1.508,7.774,1.508
					c3.249,0,5.802-0.696,6.382-2.785C227.713,193.132,226.9,191.275,223.884,192.436z"/>
			</g>
		</g>
		<path style="fill:#666666;stroke:#263238;stroke-linecap:round;stroke-linejoin:round;stroke-miterlimit:10;" d="M115.076,418.325
			c0,0-0.207,10.355,0.207,12.012c0.414,1.657,7.663,3.728,12.219,3.728c4.556,0,7.456-1.035,8.284-2.278
			c0.828-1.243,2.278-9.734,2.278-9.734S121.91,425.366,115.076,418.325z"/>
		<g>
			<path style="fill:#263238;stroke:#263238;stroke-linecap:round;stroke-linejoin:round;stroke-miterlimit:10;" d="
				M138.024,104.601c0,0-10.139-4.16-19.237,3.639s-1.04,21.837,8.579,23.397c9.619,1.56,15.858-2.86,17.417-9.879
				C146.342,114.74,143.743,104.341,138.024,104.601z"/>
			<g>
				<path style="fill:#CFCFCF;stroke:#263238;stroke-linecap:round;stroke-linejoin:round;stroke-miterlimit:10;" d="
					M184.037,102.261c0,0-1.3,12.998-3.9,22.097c-2.6,9.099-9.359,12.478-18.977,11.179c-9.619-1.3-15.078-9.099-18.197-18.198
					c-3.12-9.099-3.38-21.577-3.38-21.577L184.037,102.261z"/>
				<path style="fill:#263238;stroke:#263238;stroke-linecap:round;stroke-linejoin:round;stroke-miterlimit:10;" d="
					M140.883,102.001c0,0,3.12,2.86,10.139-2.08c7.019-4.939,3.639-7.279,3.639-7.279l-16.638,1.04L140.883,102.001z"/>
				<path style="fill:none;stroke:#263238;stroke-linecap:round;stroke-linejoin:round;stroke-miterlimit:10;" d="M173.638,105.381
					c0,0-1.3,3.899-0.52,5.199c0.78,1.3,2.86,3.12,0.52,5.199c-2.34,2.08-4.939,0.78-5.979-1.04"/>
				<path style="fill:none;stroke:#263238;stroke-linecap:round;stroke-linejoin:round;stroke-miterlimit:10;" d="M159.138,117.001
					c0,0,3.994,5.192,11.583,2.796"/>
				<path style="fill:#263238;" d="M164.8,106.941c0,1.436-0.582,2.6-1.3,2.6c-0.718,0-1.3-1.164-1.3-2.6c0-1.436,0.582-2.6,1.3-2.6
					C164.218,104.341,164.8,105.505,164.8,106.941z"/>
				<path style="fill:#263238;" d="M179.098,109.02c0,1.436-0.582,2.6-1.3,2.6c-0.718,0-1.3-1.164-1.3-2.6
					c0-1.436,0.582-2.6,1.3-2.6C178.516,106.421,179.098,107.585,179.098,109.02z"/>
				<path style="fill:none;stroke:#263238;stroke-linecap:round;stroke-linejoin:round;stroke-miterlimit:10;" d="M159.341,101.221
					c0,0,3.64-4.159,8.319,0"/>
				<path style="fill:none;stroke:#263238;stroke-linecap:round;stroke-linejoin:round;stroke-miterlimit:10;" d="M175.978,103.301
					c0,0,2.6-2.08,5.459,0.26"/>
			</g>
			<path style="fill:#C6FF00;stroke:#263238;stroke-linecap:round;stroke-linejoin:round;stroke-miterlimit:10;" d="M136.984,96.802
				l48.353,5.199c0,0-0.52-24.437-0.78-28.596c-0.26-4.159-19.497-9.879-27.036-9.359c-7.539,0.52-16.898,4.939-18.457,7.019
				C137.504,73.145,136.984,96.802,136.984,96.802z"/>
			<path style="fill:#C6FF00;stroke:#263238;stroke-linecap:round;stroke-linejoin:round;stroke-miterlimit:10;" d="M157.781,99.402
				l42.894,5.719c0,0-11.438-9.879-20.537-10.659C171.039,93.683,157.781,99.402,157.781,99.402z"/>
			<path style="fill:#CFCFCF;stroke:#263238;stroke-linecap:round;stroke-linejoin:round;stroke-miterlimit:10;" d="
				M142.703,103.821c0,0-1.04-8.059-5.459-8.059s-2.34,6.499-1.82,10.659c0.52,4.159,5.459,5.199,7.279,3.64"/>
		</g>
		<path style="fill:#666666;stroke:#263238;stroke-linecap:round;stroke-linejoin:round;stroke-miterlimit:10;" d="M147.177,429.094
			l0.621,9.734c0,0,2.747,2.066,10.797,2.172c8.05,0.106,11-3.5,11-3.5l1.606-10.477
			C171.201,427.023,156.289,434.065,147.177,429.094z"/>
	</g>
</g>
</svg>
