<?xml version="1.0" encoding="utf-8"?>
<!-- Generator: Adobe Illustrator 27.5.0, SVG Export Plug-In . SVG Version: 6.00 Build 0)  -->
<svg version="1.1" xmlns="http://www.w3.org/2000/svg" xmlns:xlink="http://www.w3.org/1999/xlink" x="0px" y="0px"
	 viewBox="0 0 1100 800" style="enable-background:new 0 0 1100 800;" xml:space="preserve">
<g id="Background">
	<rect style="fill:#D5E6F4;" width="1100" height="800"/>
</g>
<g id="Shadow">
	<g>
		<path style="fill:#F7F7F7;" d="M521.964,644.118c-28.193,0.084-56.385,0.762-84.528,3.892c-10.611,1.18-21,3.776-31.635,4.823
			c-21.244,2.092-42.107,5.993-63.426,7.793c-17.168,1.449-34.408,2.305-51.526,4.143c-16.049,1.724-33.816,1.326-49.742-1.522
			c-11.79-2.109-23.633-3.296-35.225-6.682c-12.967-3.789-27.055-6.498-40.565-6.4c-19.266,0.139-38.028,0.155-56.466,6.845
			c-6.472,2.348-14.395,6.209-19.31,11.137c-11.251,11.282-12.774,39.432-1.54,51.133c18.921,19.693,59.305,27.42,85.827,27.785
			c29.063,0.4,57.296-1.758,86.401-3.026c27.045-1.179,54.023-2.856,81.113-2.797c55.328,0.121,110.664,0,165.893-3.696
			c51.888-3.472,103.907-2.28,155.909-2.28c53.326,0,106.291,0.419,159.233,7.506c23.067,3.088,46.568,4.169,69.75,6.332
			c20.762,1.938,40.714-0.038,61.394-1.829c17.365-1.504,34.616-5.964,50.391-13.503c12.487-5.968,34.749-24.507,38.579-38.752
			c10.736-39.935-151.3-38.975-176.179-38.885c-27.831,0.101-55.884,1.016-83.693-0.045c-11.698-0.446-23.224-2.733-34.641-5.238
			c-11.372-2.495-22.83-1.861-34.362-2.91c-48.092-4.374-96.291-3.734-144.536-3.734
			C553.379,644.209,537.671,644.071,521.964,644.118z"/>
	</g>
</g>
<g id="Object">
	<g>
		<g>
			<g>
				<g>
					<path style="fill:#162333;" d="M560.258,655.439c-0.366-1.166-0.971-2.232-1.856-3.003c-0.466-0.406-0.998-0.721-1.451-1.143
						c-2.135-1.984-1.928-3.92-5.012-3.428c-3.509,0.561-7.003,1.292-10.5,1.937c-0.138,0.026-0.284,0.055-0.391,0.152
						c-0.154,0.14-0.186,0.377-0.208,0.593c-0.124,1.258-0.248,2.517-0.372,3.775c-0.335,3.402-3.261,4.448-5.651,5.832
						c-0.614,0.356-1.252,0.715-1.899,1.085c-2.71,1.547-10.947,5.026-6.782,9.381c1.722,1.8,4.651,1.747,6.907,1.944
						c2.179,0.19,4.36-0.388,6.5-0.734c6.857-1.464,13.167-3.682,19.338-7.224c2.21-1.269,2.009-4.747,1.768-7.215
						C560.584,656.733,560.456,656.071,560.258,655.439z"/>
					<g>
						<polygon style="fill:#305399;" points="546.779,434.863 554.26,463.118 547.815,544.126 558.725,651.561 538.209,653.72 
							509.855,551.265 486.97,439.023 						"/>
					</g>
				</g>
				<g>
					<path style="fill:#162333;" d="M464.974,665.72c-0.084-1.223-0.423-2.409-1.102-3.377c-0.358-0.51-0.8-0.948-1.142-1.47
						c-1.61-2.457-0.958-4.285-4.067-4.574c-3.537-0.329-7.098-0.488-10.642-0.732c-0.14-0.009-0.288-0.018-0.415,0.05
						c-0.182,0.097-0.268,0.32-0.339,0.524c-0.414,1.19-0.827,2.381-1.24,3.571c-1.118,3.219-4.201,3.505-6.843,4.255
						c-0.679,0.193-1.381,0.383-2.096,0.58c-2.991,0.827-11.796,2.155-8.767,7.418c1.252,2.176,4.108,2.853,6.252,3.606
						c2.071,0.727,4.322,0.708,6.479,0.904c6.997,0.285,13.637-0.298,20.451-2.2c2.441-0.682,3.056-4.108,3.397-6.563
						C464.99,667.057,465.019,666.383,464.974,665.72z"/>
					<g>
						<polygon style="fill:#305399;" points="503.255,448.275 513.117,468.784 478.818,554.584 464.389,661.575 443.974,658.566 
							440.312,552.069 444.236,437.433 						"/>
					</g>
				</g>
			</g>
			<path style="fill:#7DB5DB;" d="M570.396,435.073c-0.814-5.216-1.655-9.56-1.89-11.123c-3.192-21.192-12.375-41.451-18.291-61.917
				c-7.035-24.34-15.238-48.319-24.569-71.819c-3.458-8.71-7.847-18.169-16.302-21.676c-9.72-4.03-19.088-12.184-28.788-6.293
				c-1.982,1.203-4.411,1.775-6.486,2.848c-12.326,6.373-18.535,16.758-21.254,30.697c-2.188,11.215-4.376,22.43-6.564,33.646
				c-1.797,9.21-3.594,18.424-4.992,27.711c-3.659,24.312-4.551,48.987-4.409,73.585c0.071,12.332,0.404,24.662,0.781,36.988
				c0.241,7.878,3.668,4.1,7.896,1.127c7.288-5.125,14.495-10.466,23.053-13.096c4.155-1.277,8.474-1.881,12.782-2.384
				c26.203-3.057,52.949-2.491,78.659,3.566c1.528,0.36,3.085,0.753,4.404,1.628c1.761,1.167,4.302,4.014,6.4,2.076
				c1.304-1.206,1.223-4.72,1.292-6.317C572.393,447.911,571.38,441.378,570.396,435.073z"/>
		</g>
		<g>
			<g>
				<g>
					<path style="fill:#3B455A;" d="M465.977,213.505c-1.953,4.728-2.582,9.992-2.262,15.14c0.085,1.369,0.161,2.952-0.803,3.875
						c-1.032,0.988,0.151,2.765-0.822,1.71c-0.973-1.055-4.288-4.728-4.57-6.166c-0.661-3.371-1.015-6.807-1.056-10.247
						c-0.036-2.992,0.217-6.15,1.824-8.616c0.953-1.462,2.313-2.568,3.654-3.643c1.944-1.559,3.951-3.136,6.294-3.876
						c4.039-1.275,6.729-0.007,3.407,3.428C469.263,207.57,467.314,210.265,465.977,213.505z"/>
				</g>
				<g>
					<g>
						<path style="fill:#EACDB0;" d="M497.667,268.748c-5.613,1.2-11.227,2.401-16.841,3.601
							c-1.401-5.052-2.453-10.227-3.144-15.457c-5.033-0.331-11.018-1.351-13.275-6.6c-0.711-1.653-0.924-3.515-1.127-5.336
							c-0.839-7.53-1.679-15.061-2.518-22.591c-0.29-2.604-0.577-5.29,0.02-7.805c1.047-4.413,4.568-7.372,8.114-9.385
							c9.049-5.136,20.108-6.226,29.455-1.439c2.488,1.274,4.89,3.003,6.511,5.536c2.499,3.906,2.773,9.046,2.951,13.86
							c0.164,4.443,0.328,8.886,0.493,13.329c0.189,5.11,0.074,11.03-3.393,14.133c-1.84,1.648-4.384,2.2-5.906,4.235
							C496.323,258.416,498.306,264.033,497.667,268.748z"/>
					</g>
				</g>
				<g>
					<path style="fill:#3B455A;" d="M462.453,249.488c1.375,4.591,4.001,8.826,7.908,11.048c4.428,2.52,9.617,2.147,14.516,1.714
						c2.68-0.237,5.36-0.473,8.04-0.71c6.78-0.599,13.413-2.281,16.112-10.163c1.244-3.635,1.335-7.707,0.692-11.572
						c-0.177-1.062-0.421-2.147-0.998-3.015c-0.578-0.868-1.564-1.471-2.488-1.227c-1.18,0.312-1.759,1.751-2.421,2.893
						c-1.444,2.492-4.285,4.112-6.817,3.155c-0.75-0.284-1.424-0.764-2.095-1.25c-0.275-0.199-0.549-0.399-0.828-0.587
						c-2.767-1.864-5.983-2.498-9.139-2.572c-2.738-0.064-6.822-0.659-8.573,1.985c-1.019,1.538-2.038,3.076-3.056,4.615
						c-0.42,0.633-0.85,1.279-1.431,1.72c-0.599,0.455-1.322,0.663-2.043,0.758c-1.813,0.24-3.943-0.41-4.762-2.277
						c-0.357-0.813-0.414-1.74-0.54-2.632c-0.126-0.892-0.354-1.829-0.947-2.443c-2.268-2.347-2.421,1.814-2.355,3.22
						C461.345,244.634,461.743,247.118,462.453,249.488z M481.011,248.697c2.301,1.272,4.547,1.037,6.845,0.015
						c1.181-0.525,1.923,1.568,0.744,2.092c-2.774,1.233-5.62,1.456-8.384-0.071C479.066,250.097,479.854,248.057,481.011,248.697z"
						/>
				</g>
				<g>
					<path style="fill:#3B455A;" d="M455.944,201.427c-0.663-1.773-1.206-3.595-1.624-5.448c1.718,0.422,3.536,0.381,5.232-0.121
						c-0.109-1.084-0.218-2.168-0.327-3.252c-0.086-0.902,11.446-2.848,12.38-3.036c8.743-1.761,16.736-3.4,25.234,0.674
						c7.259,3.479,12.291,9.334,14.2,17.48c1.823,7.783,0.442,18.374-3.217,25.42c-0.194-2.105,0.438-7.194-0.242-9.138
						c-0.498-1.969-1.358-3.825-2.451-5.504c-2.184-3.353-5.305-6.03-8.771-7.799c-5.527-2.821-11.727-3.94-17.824-4.139
						c-5.586-0.182-12.368-0.165-17.643,1.983c-2.536,1.033-2.897,1.771-4.769-0.822c-0.33-0.457-3.138-5.914-2.922-5.942
						C454.113,201.664,455.029,201.546,455.944,201.427z"/>
				</g>
			</g>
		</g>
	</g>
	<g>
		<g>
			<g>
				<path style="fill:#EACDB0;" d="M151.773,235.842c1.171,0.824,2.122,2.216,2.867,3.512c1.211,2.106,2.832,4.514,5.202,4.468
					c2.049-0.04,3.715-1.988,5.763-2.029c2.239-0.044,3.929,2.253,4.365,4.523c0.436,2.27,0.024,4.619,0.171,6.929
					c0.266,4.173,3.23,9.944-0.873,13.017c-1.166,0.873-4.314,1.744-5.721,1.309c-2.078-0.642-1.854-1.607-2.626-3.671
					c-0.84-2.246-1.679-4.493-2.519-6.739c-1.25-3.345-4.047-3.725-6.617-5.769c-1.742-1.385-2.843-3.44-3.894-5.435
					c-1.008-1.911-2.042-3.923-2.054-6.099c-0.012-2.176,1.382-4.527,3.477-4.735C150.223,235.033,151.041,235.327,151.773,235.842z
					"/>
				<path style="fill:#7DB5DB;" d="M170.34,315.572c-4.077-12.068-6.856-24.599-9.354-37.128
					c-0.745-3.738-6.316-15.077-4.203-18.223c2.576-3.836,13.579-1.962,16.723,0.094c4.095,2.676,6.744,10.296,8.878,14.584
					c5.845,11.746,10.555,24.893,20.948,33.301c-1.478-1.196,25.579-17.818,28.202-18.866c8.681-3.468,27.261-11.816,27.217,3.244
					c-0.018,6.388-0.237,12.775-0.656,19.148c-0.704,10.717-5.346,21.532-14.268,27.54c-6.877,4.631-15.058,6.683-23.134,8.2
					c-9.874,1.854-19.868,3.028-29.893,3.511c-9.076,0.437-10.625-12.124-14.068-19.42
					C174.277,326.35,172.177,321.008,170.34,315.572z"/>
			</g>
			<g>
				<g>
					<g>
						<path style="fill:#E5D1BD;" d="M316.316,662.625c2.868,0.366,5.56-0.525,8.368-0.687c0.425-10.196-0.108-20.028-1.682-30.212
							c-4.612,4.726-8.108,1.618-8.472,10.982C314.412,645.74,317.133,658.05,316.316,662.625z"/>
						<path style="fill:#162333;" d="M325.592,656.908c3.341-1.02,3.637,7.106,3.558,9.007c-0.047,1.143-0.242,2.3-0.022,3.421
							c0.242,1.234,0.962,2.301,1.666,3.329c1.472,2.153,2.945,4.305,4.417,6.458c0.662,0.968,1.335,1.959,1.656,3.097
							c0.795,2.82-0.948,6.007-3.553,7.182c-9.039,4.074-16.458-7.505-17.96-14.952c-0.23-1.141-0.381-2.298-0.531-3.454
							c-0.311-2.39-1.76-7.648-0.725-9.904c1.207-2.633,4.31-0.493,6.468-1.386C322.568,658.877,324.24,657.322,325.592,656.908z"/>
					</g>
					<path style="fill:#305399;" d="M272.008,491.62c6.931,23.533,15.15,46.636,19.22,71.084
						c5.028,30.202,14.175,59.902,18.051,90.103c3.554,0.328,7.132,0.38,10.694,0.155c4.084-0.258,10.584-1.012,12.298-5.505
						c0.876-2.296,0.291-6.148,0.31-8.586c0.061-7.807-0.052-15.616-0.18-23.422c-0.363-22.085-0.219-44.411-2.946-66.322
						c-2.869-23.05-5.559-46.168-7.933-69.185c-1.227-11.896-2.892-23.745-5.094-35.491c-0.568-3.027-6.495-34.226-8.002-34.067
						c-17.892,1.88-34.813,6.979-50.774,15.542c-1.551,0.832-3.06,1.844-3.671,3.451c-0.612,1.608-0.216,3.047,0.187,4.561
						c3.839,14.446,9.265,28.1,13.413,42.508C269.023,481.459,270.492,486.473,272.008,491.62z"/>
				</g>
				<g>
					<g>
						<path style="fill:#E5D1BD;" d="M258.341,653.991c-2.751,0.916-5.556,0.563-8.344,0.95c-2.27-9.932-3.533-19.693-3.838-30.001
							c5.389,3.746,8.257,0.015,10.317,9.142C257.143,637.037,256.707,649.656,258.341,653.991z"/>
						<path style="fill:#162333;" d="M247.34,651.836c-0.309,5.524-4.841,11.226-7.441,16.058c-0.306,0.568-0.618,1.16-0.665,1.808
							c-0.07,0.964,0.454,1.854,0.958,2.668c0.699,1.13,1.461,2.319,2.641,2.878c1.159,0.549,2.505,0.386,3.763,0.177
							c2.107-0.35,4.198-0.8,6.265-1.348c0.515-0.136,1.041-0.285,1.472-0.606c0.511-0.38,0.838-0.964,1.149-1.53
							c1.599-2.903,2.936-4.951,3.041-8.283c0.108-3.442-0.117-7.027,0.678-10.398c0.391-1.634,0.905-3.724-0.415-4.711
							c-1.02-0.763-3.011,0.09-4.174,0.217c-2.052,0.224-3.925-0.016-5.858,0.978c-0.394,0.202-0.78,0.451-1.036,0.821
							C247.457,650.94,247.365,651.375,247.34,651.836z"/>
					</g>
					<path style="fill:#305399;" d="M270.786,477.427c-2.531,24.46-6.406,48.747-5.961,73.55
						c0.549,30.641-3.038,61.588-1.356,92.003c-3.431,1.012-6.936,1.757-10.476,2.228c-4.058,0.54-10.579,1.06-13.08-3.02
						c-1.278-2.085-1.403-5.982-1.865-8.373c-1.478-7.656-2.787-15.348-4.079-23.04c-3.656-21.763-7.855-43.663-9.158-65.713
						c-1.371-23.197-2.93-46.425-4.78-69.494c-0.957-11.923-1.475-23.884-1.446-35.849c0.007-3.083,0.16-34.878,1.669-35.015
						c17.915-1.627,35.461,0.096,52.694,5.409c1.675,0.516,3.34,1.217,4.233,2.677c0.893,1.46,0.766,2.951,0.645,4.516
						c-1.146,14.934-3.994,29.398-5.45,44.356C271.871,466.867,271.34,472.077,270.786,477.427z"/>
				</g>
				<path style="fill:#7DB5DB;" d="M291.54,281.17c0.284,0.118,0.565,0.241,0.844,0.37c4.668,2.15,8.541,5.755,12.329,9.301
					c5.689,5.326,8.506,7.68,10.405,15.187c1.771,7.001,2.718,14.34,3.646,21.501c4.76,36.767,4.082,73.065,6.922,109.994
					c0.773,10.052,1.15,21.839-6.363,28.273c-12.106-10.928-27.992-12.447-43.351-13.359c-10.785-0.641-21.133-4.868-32.013-4.256
					c-10.398,0.585-19.277-2.612-29.802-2.52c-2.538,0.022-5.757-0.195-6.622-2.661c4.244-11.031,4.843-23.126,6.312-34.901
					c3.799-30.456,15.206-59.227,20.824-89.369c1.91-10.245,3.565-27.34,11.728-34.702c8.871-8.001,28.054-7.053,38.766-4.76
					C287.333,279.733,289.487,280.316,291.54,281.17z"/>
				<g>
					<g>
						<g>
							<g>
								<path style="fill:#EACDB0;" d="M282.16,286.039c-0.188,0.331-0.433,0.645-0.754,0.937c-1.266,1.153-2.966,1.749-4.628,1.896
									c-2.191,0.195-4.38-0.308-6.514-0.859c-2.882-0.745-2.683-2.503-2.956-5.261c-0.149-1.508-0.211-3.022-0.237-4.536
									c-0.014-0.83,0.457-3.772-0.021-4.381c-0.325-0.413-1.74-0.363-2.339-0.732c-0.949-0.585-1.713-1.605-2.249-2.584
									c-0.864-1.579-1.29-3.367-1.706-5.129c-0.723-3.066-1.447-6.132-2.17-9.198c-0.739-3.133-1.482-6.291-1.598-9.514
									c-0.175-4.857,0.954-11.633,4.675-14.959c3.394-3.034,8.152-3.888,12.489-4.205c5.743-0.42,11.594,1.005,16.347,4.421
									c1.919,1.38,3.715,3.128,4.766,5.449c1.62,3.578,1.245,7.905,0.829,11.947c-0.384,3.73-0.769,7.461-1.153,11.191
									c-0.442,4.291-1.232,9.219-4.479,11.37c-1.724,1.142-3.903,1.28-5.408,2.786c-1.884,1.886-1.933,4.878-2.145,7.397
									C282.786,283.513,282.816,284.884,282.16,286.039z"/>
							</g>
						</g>
					</g>
				</g>
				<path style="fill:#3B455A;" d="M257.319,253.585c0.122,0.855,0.228,1.732,0.286,2.635c0.494,7.684-0.657,15.076,0.833,22.783
					c-6.698-3.377-12.702-8.709-17.38-15.435c-0.804-1.156-1.584-2.384-1.983-3.827c-0.38-1.377-0.392-2.868-0.376-4.331
					c0.104-9.345,1.198-18.698,3.247-27.752c0.813-3.593,1.794-7.188,3.475-10.319c5.065-9.441,15.235-12.598,24.388-12.696
					c5.3-0.057,10.847,0.751,15.133,4.447c4.625,3.988,5.877,10.879,5.652,16.764c-0.055,1.444-0.157,2.948-0.861,4.196
					c-1.461,2.591-4.819,3.094-7.716,3.243c-4.071,0.208-8.177,0.276-12.158,1.178c-3.981,0.902-7.897,2.727-10.58,5.898
					C255.514,244.818,256.652,248.888,257.319,253.585z"/>
				<path style="fill:#3B455A;" d="M304.675,218.466c1.248,2.579,2.227,5.343,2.99,8.232c2.697,10.206,5.228,19.863,3.773,30.68
					c-0.202,1.505-0.468,3.017-1.01,4.4c-0.729,1.861-1.921,3.393-3.128,4.844c-4.827,5.801-10.24,10.872-16.072,15.054
					c2.462-13.032,4.881-27.001,0.948-39.315c-3.055-9.565-9.445-16.35-16.44-21.563c-3.908-2.912-14.431-8.809-11.733-15.312
					c3.716-8.958,24.081-3.256,29.724,0.353C298.707,209.022,302.215,213.385,304.675,218.466z"/>
			</g>
		</g>
	</g>
	<g>
		<rect x="405.077" y="432.327" style="fill:#587BC9;" width="124.71" height="124.476"/>
		<polygon style="fill:#3864B2;" points="529.787,556.804 560.626,524.927 560.626,400.451 529.787,432.327 		"/>
		<polygon style="fill:#86A7E0;" points="529.787,432.327 560.626,400.451 435.916,400.451 405.077,432.327 		"/>
		<polygon style="fill:#3864B2;" points="489.405,400.451 458.565,432.328 458.565,457.416 476.277,457.416 476.277,432.328 
			476.299,432.328 507.138,400.451 		"/>
		<g>
			<polygon style="fill:#FFFFFF;" points="493.339,464.985 476.288,487.735 486.636,487.735 486.636,524.179 500.042,524.179 
				500.042,487.735 510.39,487.735 			"/>
			<polygon style="fill:#FFFFFF;" points="424.474,487.735 434.822,487.735 434.822,524.179 448.228,524.179 448.228,487.735 
				458.576,487.735 441.525,464.985 			"/>
		</g>
		<g>
			<rect x="421.584" y="531.219" style="fill:#FFFFFF;" width="91.697" height="1.874"/>
			<rect x="421.584" y="536.803" style="fill:#FFFFFF;" width="91.697" height="1.874"/>
			<rect x="421.584" y="542.387" style="fill:#FFFFFF;" width="91.697" height="1.874"/>
		</g>
	</g>
	<g>
		<rect x="187.983" y="431.398" style="fill:#587BC9;" width="124.71" height="124.476"/>
		<polygon style="fill:#3864B2;" points="312.693,555.874 343.532,523.998 343.532,399.522 312.693,431.398 		"/>
		<polygon style="fill:#3864B2;" points="312.693,431.398 343.532,399.522 218.822,399.522 187.983,431.398 		"/>
		<g>
			<polygon style="fill:#FFFFFF;" points="276.245,464.055 259.194,486.806 269.542,486.806 269.542,523.25 282.948,523.25 
				282.948,486.806 293.296,486.806 			"/>
			<polygon style="fill:#FFFFFF;" points="207.38,486.806 217.728,486.806 217.728,523.25 231.134,523.25 231.134,486.806 
				241.482,486.806 224.431,464.055 			"/>
		</g>
		<polygon style="fill:#86A7E0;" points="343.532,399.522 379.707,435.308 348.868,467.185 312.693,431.398 		"/>
		<polygon style="fill:#86A7E0;" points="218.806,399.522 179.688,423.429 148.864,455.305 187.983,431.398 		"/>
		<polygon style="fill:#265496;" points="218.806,399.522 218.806,431.398 187.983,431.398 		"/>
		<polygon style="fill:#86A7E0;" points="312.693,431.398 300.272,460.271 174.783,460.271 187.983,431.398 		"/>
		<g>
			<rect x="204.489" y="530.29" style="fill:#FFFFFF;" width="91.697" height="1.874"/>
			<rect x="204.489" y="535.874" style="fill:#FFFFFF;" width="91.697" height="1.874"/>
			<rect x="204.489" y="541.458" style="fill:#FFFFFF;" width="91.697" height="1.874"/>
		</g>
	</g>
	<path style="fill:#305399;" d="M210.531,275.3c-11.573-31.039-38.53-54.924-72.64-60.121c-23.885-3.639-46.975,2.541-65.453,15.59
		c-0.843,0.596-0.183,1.942,0.768,1.559c12.441-5.008,26.265-6.855,40.418-4.699c31.291,4.767,55.634,27.738,64.459,56.991
		l-20.7,5.946l24.279,18.414l24.666,18.708l10.108-25.015l13.289-32.887L210.531,275.3z"/>
	<g>
		<g>
			<rect x="627.008" y="283.539" style="fill:#587BC9;" width="124.71" height="124.476"/>
			<polygon style="fill:#3864B2;" points="751.718,408.015 782.557,376.139 782.557,251.662 751.718,283.539 			"/>
			<polygon style="fill:#86A7E0;" points="751.718,283.539 782.557,251.662 657.847,251.662 627.008,283.539 			"/>
			<polygon style="fill:#3864B2;" points="711.335,251.662 680.496,283.539 680.496,308.628 698.208,308.628 698.208,283.539 
				698.229,283.539 729.069,251.662 			"/>
			<g>
				<polygon style="fill:#FFFFFF;" points="715.27,316.196 698.219,338.946 708.567,338.946 708.567,375.391 721.973,375.391 
					721.973,338.946 732.321,338.946 				"/>
				<polygon style="fill:#FFFFFF;" points="646.405,338.946 656.753,338.946 656.753,375.391 670.159,375.391 670.159,338.946 
					680.507,338.946 663.456,316.196 				"/>
			</g>
			<g>
				<rect x="643.514" y="382.431" style="fill:#FFFFFF;" width="91.697" height="1.874"/>
				<rect x="643.514" y="388.014" style="fill:#FFFFFF;" width="91.697" height="1.874"/>
				<rect x="643.514" y="393.598" style="fill:#FFFFFF;" width="91.697" height="1.874"/>
			</g>
		</g>
		<g>
			<path style="fill:#3B455A;" d="M694.472,227.73c0.79-0.57,0.981-1.695,0.429-2.51c-0.55-0.812-1.635-1.014-2.428-0.442
				l-54.459,42.134c-0.468,0.337-0.745,0.888-0.745,1.476v4.544l3.488-3.605l0,0L694.472,227.73z"/>
		</g>
		<g>
			<g>
				<path style="fill:#B5B8C4;" d="M727.378,209.152c-0.962-0.383-1.981-0.058-2.547,0.806c-6.959,10.545-18.822,9.247-19.059,9.229
					c-9.391,0-17.032-7.862-17.032-17.524c0-7.739,5.054-14.655,12.29-16.82c1.209-0.362,2.44-0.529,3.742-0.706
					c1.796-0.244,3.652-0.497,5.46-1.299c2.91-1.292,5.245-3.505,6.574-6.231c1.719-3.528,1.641-7.448,1.564-11.239
					c-0.015-0.753-0.031-1.5-0.031-2.236v-8.672c0-0.559-0.438-1.012-0.979-1.012h-11.519c-0.539,0-0.977,0.451-0.979,1.008
					c0,0-0.042,10.812-0.046,11.063c-0.015,3.792-2.849,4.9-7.177,6.132c-6.208,1.768-11.895,5.638-15.862,10.889
					c-4.109,5.439-6.372,12.23-6.372,19.12c0,7.399,2.576,14.579,7.251,20.217c5.394,6.503,13.434,10.167,21.48,10.167
					c2.509,0,5.02-0.357,7.45-1.094c9.181-2.786,15.912-10.414,17.147-19.436C728.875,210.483,728.331,209.532,727.378,209.152z"/>
				<path style="fill:#B4B7C1;" d="M727.378,209.152c-0.962-0.383-1.981-0.058-2.547,0.807v-0.001
					c-6.959,10.545-19.501,10.378-25.596,7.882c0.015,0.007,0.028,0.015,0.042,0.022c-0.015-0.007-0.028-0.015-0.042-0.022
					c-1.726-0.741-3.299-1.775-4.683-3.027c-2.623-2.51-4.022-4.743-4.828-7.276c2.426,9.007,10.189,15.481,19.676,15.481
					c8.539,0,15.866-5.355,19.014-12.993C728.176,209.645,727.827,209.331,727.378,209.152z"/>
				<path style="opacity:0.2;fill:#FFFFFF;" d="M695.324,176.898c-0.202,0.055-0.406,0.088-0.608,0.149
					c-12.374,3.713-19.492,17.091-15.9,29.881c1.535,5.465,4.786,9.927,8.962,12.968c-2.058-2.812-3.687-6.032-4.695-9.62
					C679.431,197.271,684.78,183.792,695.324,176.898z"/>
				<g>
					<polygon style="fill:#CED0D8;" points="666.388,72.49 759.107,72.49 759.107,118.367 666.239,118.367 					"/>
					<polygon style="fill:#B4B7C1;" points="666.239,118.367 690.39,143.329 712.673,143.329 734.957,143.329 759.107,118.367 					
						"/>
					<path style="fill:#979DAF;" d="M722.781,154.462h-20.878c-0.859,0-1.555-0.696-1.555-1.555v-9.577h23.987v9.577
						C724.336,153.765,723.64,154.462,722.781,154.462z"/>
				</g>
			</g>
			<path style="fill:#B4B7C1;" d="M761.53,72.49h-97.712c-1,0-1.811-0.811-1.811-1.811v-6.668c0-1,0.811-1.811,1.811-1.811h97.713
				c1,0,1.811,0.811,1.811,1.811v6.668C763.34,71.679,762.53,72.49,761.53,72.49z"/>
		</g>
		<path style="fill:#3B455A;" d="M768.882,267.596c0-0.552-0.247-1.073-0.668-1.414l-63.74-49.552
			c-0.631-0.517-1.526-0.514-2.162,0.007l-2.219,1.524l1.191,0.385l64.111,49.931l0.234,125.155l-2.616,2.705h4.362
			c0.463,0,0.908-0.19,1.235-0.529c0.327-0.339,0.509-0.798,0.509-1.277L768.882,267.596z"/>
	</g>
	<g>
		<path style="fill:#FFFFFF;" d="M789.743,588.167h-610.27c-6.663,0-12.064-5.583-12.064-12.47l0,0
			c0-6.887,5.401-12.47,12.064-12.47h610.27c6.663,0,12.064,5.583,12.064,12.47l0,0
			C801.808,582.584,796.406,588.167,789.743,588.167z"/>
		<ellipse style="fill:#3B455A;" cx="254.654" cy="575.697" rx="7.591" ry="7.847"/>
		<ellipse style="fill:#3B455A;" cx="465.346" cy="575.697" rx="7.591" ry="7.847"/>
		<ellipse style="fill:#3B455A;" cx="676.039" cy="575.697" rx="7.591" ry="7.847"/>
	</g>
	<g>
		<g>
			<g>
				<path style="fill:#EACDB0;" d="M333.222,411.261c1.121-2.713,1.977-5.526,2.821-8.341c-4.151-0.989-8.311-1.931-12.487-2.778
					c-0.084,0.798-0.164,1.59-0.235,2.369c-0.36,3.973-0.114,8.026-0.871,11.956c-0.389,2.017-1.006,4.183-2.188,5.871
					c-1.043,1.49-2.007,2.111-2.327,4.144c-0.296,1.879,2.071,2.512,1.135,4.472c-1.018,2.133-4.062,0.589-5.64,2.12
					c-0.451,0.438-0.71,1.042-0.933,1.638c-0.575,1.535-0.972,3.318-0.241,4.781c2.224,4.45,8.008,2.265,10.644-0.107
					c1.792-1.612,4.168-2.874,5.483-4.976c2.703-4.32,0.698-10.014,2.192-14.7C331.281,415.491,332.334,413.41,333.222,411.261z"/>
			</g>
		</g>
		<path style="fill:#7DB5DB;" d="M298.28,337.849c4.84,7.866,14.323,13.434,20.555,20.573c12.163,13.933,4.366,39.504,2.792,56.524
			l10.595,4.324l14.693-51.959l-22.305-49.821c-6.473-14.459-18.069-25.798-32.394-31.679l-10.076-4.136
			c3.956,1.651,8.6,30.894,9.844,35.363c1.65,5.927,2.552,13.499,5.288,18.995C297.579,336.653,297.916,337.257,298.28,337.849z"/>
	</g>
	<g>
		<g>
			<g>
				<path style="fill:#E5D1BD;" d="M807.966,294.784c0.284-0.033,0.578-0.064,0.85-0.013c2.537,0.474,3.585,2.292,5.892,3.462
					c1.029,0.522,3.556-1.046,3.839,1.41c0.104,0.907,0.057,3.167,0.262,5.102c0.299,2.822,2.327,6.212,4.418,8.597
					c2.81,3.205,5.857,6.529,9.073,9.243c6.756,5.7,14.884,11.275,22.576,15.548c7.393-12.815,22.125-20.69,36.515-19.518
					c1.504,0.122,3.057,0.356,4.325,1.2c1.073,0.714,1.855,1.811,2.483,2.958c6.65,12.132-4.756,18.125-13.751,23.352
					c-5.614,3.262-11.513,6.206-17.534,8.578c-8.432,3.322-15.611,0.243-22.81-4.98c-7.629-5.535-15.261-11.283-21.603-18.396
					c-3.083-3.457-5.314-7.265-7.909-11.07c-2.565-3.761-4.041-2.371-7.103-5.067c-1.708-1.505-3.725-2.705-5.138-4.519
					c-2.534-3.252-1.465-7.421-0.877-11.159c0.146-0.93,0.242-1.56,0.758-2.264c0.839-1.146,2.138-1.52,3.415-1.938
					C806.404,295.061,807.182,294.874,807.966,294.784z"/>
			</g>
			<g>
				<path style="fill:#959596;" d="M882.94,354.716c-4.565,2.048-9.129,3.855-13.59,5.418c-6.651,2.33-13.96,4.66-20.53,2.095
					c-2.533-0.989-4.76-2.648-6.945-4.301c-10.358-7.833-20.526-15.935-30.491-24.294c2.876-6.302,6.683-12.149,11.247-17.276
					c1.281-1.439,2.767-2.899,4.642-3.152c2.787-0.376,5.138,1.992,7.008,4.161c3.045,3.532,6.089,7.065,9.134,10.597
					c0.988,1.146,2.126,2.373,3.606,2.501c0.966,0.083,1.902-0.327,2.784-0.744c16.68-7.872,29.063-17.772,43.138-29.693
					c6.205-5.253,12.673-10.648,20.433-12.742c16.571-4.471,30.141,14.139,19.785,28.999
					C921.356,333.228,902.131,346.104,882.94,354.716z"/>
			</g>
		</g>
		<g>
			<g>
				<g>
					<polygon style="fill:#162333;" points="990.32,671.942 990.799,680.386 974.939,689.821 966.291,681.872 973.981,672.933 
						989.841,663.498 					"/>
				</g>
				<g>
					<polygon style="fill:#3B455A;" points="1001.524,415.492 1002.979,441.137 976.203,554.269 991.021,669.169 975.006,673.502 
						929.505,535.656 928.416,494.081 938.889,408.521 					"/>
				</g>
			</g>
			<g>
				<g>
					<polygon style="fill:#3B455A;" points="898.862,429.292 887.478,536.619 893.94,677.142 909.003,678.667 930.629,551.798 
						963.354,426.052 					"/>
				</g>
				<g>
					<polygon style="fill:#162333;" points="909.092,676.805 908.294,685.224 891.208,691.993 883.861,682.75 892.803,675.157 					
						"/>
				</g>
			</g>
			<g>
				<path style="fill:#959596;" d="M1015.863,429.09c1.073,9.79,1.941,23.038-1.662,23.866c-0.675,0.155-1.361-0.132-1.988-0.413
					c-6.619-2.964-11.521-7.551-18.039-10.402c-6.831-2.989-14.452-4.201-21.878-4.852c-11.109-1.034-22.391-1.261-33.542-0.412
					c-8.766,0.667-17.492,2.267-26.141,3.838c-7.196,1.307-13.747,4.165-21.18,4.332c-7.619,0.171-15.288-1.523-22.122-5.024
					c-0.25-0.128-0.516-0.276-0.638-0.535c-0.133-0.284-0.058-0.621,0.021-0.926c1.159-4.526,1.888-8.968,4.376-12.86
					c2.778-4.346,4.553-9.703,6.413-14.528c3.876-10.055,7.436-20.546,9.834-31.094c3.761-14.385,8.265-28.477,11.856-42.893
					c2.489-9.992,4.669-20.129,8.395-29.731c2.918-7.518,8.322-18.609,15.668-22.49c2.486-1.314,5.325-1.679,8.098-2.023
					c8.41-1.045,16.82-2.091,25.231-3.136c3.066-0.381,6.258-0.75,9.175,0.295c4.372,1.566,7.149,5.901,9.599,9.958
					c10.988,18.194,18.735,38.196,23.929,59.086c2.712,10.908,5.296,21.85,7.527,32.867c2.49,12.294,4.549,24.686,5.854,37.169
					C1014.796,420.568,1015.353,424.439,1015.863,429.09z"/>
			</g>
			<g>
				<path style="fill:#FFFFFF;" d="M950.317,329.202c0.118,4.969,1.236,9.847,2.348,14.685
					c6.774,29.462,13.548,58.923,20.321,88.385c-22.66,1.931-45.319,3.862-67.979,5.792c-0.167-11.262-0.334-22.524-0.501-33.786
					c-0.107-7.22-0.213-14.465,0.631-21.64c1.361-11.573,5.157-22.703,8.929-33.728c6.969-20.372,13.939-40.745,20.908-61.117
					c0.373-1.09,0.767-2.216,1.558-3.049c0.947-0.998,2.321-1.432,3.64-1.799c6.37-1.773,13.592-3.444,20.183-3.071
					c2.166,5.967-2.894,17.172-4.614,23.075C953.236,311.537,950.1,320.124,950.317,329.202z"/>
			</g>
			<g>
				<g>
					<path style="fill:#EACDB0;" d="M942.381,287.018c4.674-0.653,9.349-1.306,14.023-1.959c-0.088-3.887-0.477-7.766-1.162-11.589
						c0.083,0.464,7.232-4.336,7.815-5.328c1.677-2.853,1.503-7.363,2.019-10.617c1.097-6.933,2.017-14.709-1.976-20.394
						c-4.135-5.887-12.083-7.287-19.106-6.815c-8.819,0.592-18.408,4.169-22.244,12.398c-3.464,7.433,2.608,17.341,4.738,24.656
						c1.05,3.606,2.527,7.695,5.967,8.935c1.826,0.658,3.946,0.369,5.614,1.381C941.011,279.472,940.776,283.907,942.381,287.018z"
						/>
				</g>
				<g>
					<path style="fill:#3B455A;" d="M906.698,230.546c-0.967-4.977-1.933-9.954-2.9-14.932c-0.359-1.849-0.717-3.768-0.29-5.601
						c0.71-3.048,3.452-5.169,6.296-6.26c2.844-1.091,5.912-1.411,8.803-2.36c3.086-1.013,6.019-2.752,9.253-2.909
						c6.15-0.298,11.358,5.132,17.501,5.562c8.506,0.595,15.854-4.101,21.816,5.62c1.096,1.786,1.544,3.919,2.534,5.769
						c1.279,2.39,3.381,4.173,5.085,6.261c7.494,9.18,6.664,24.263-0.638,33.33c-3.54,4.396-4.812,8.191-10.065,9.989
						c2.002-5.396-3.059-25.662-9.992-27.336c-1.836-0.442-6.99,2.316-8.938,2.8c-4.315,1.073-8.502,2.199-12.461,4.347
						c-5.875,3.189-12.34,5.667-18.904,6.799c-0.839,0.145-1.782,0.266-2.471-0.25c-0.648-0.486-0.852-1.375-1.01-2.186
						C909.112,242.975,907.905,236.76,906.698,230.546z"/>
				</g>
			</g>
		</g>
		<g>
			<g>
				<g>
					<polygon style="fill:#587BC9;" points="954.4,547.281 822.457,496.974 887.008,316.057 1018.951,366.365 					"/>
					<polygon style="opacity:0.26;fill:#000909;" points="835.074,492.955 837.049,493.708 952.242,541.848 1010.241,369.589 
						1004.254,369.125 					"/>
					<polygon style="fill:#FCFCFC;" points="950.519,536.972 831.884,491.739 891.607,324.356 1010.241,369.589 					"/>
					<polygon style="opacity:0.05;fill:#000004;" points="891.189,323.47 976.519,356.005 864.713,397.226 					"/>
					<g>
						<polygon style="opacity:0.12;fill:#000100;" points="975.228,360.881 923.704,341.236 925.477,336.266 977.001,355.911 						
							"/>
						<g>
							<path style="fill:#DFE4E8;" d="M971.804,336.852l-0.799-0.305l0.198-0.554c1.862-5.218-1.357-11.25-7.19-13.474l-7.682-2.929
								c-5.833-2.224-12.07,0.203-13.931,5.421l-0.198,0.554l-0.799-0.305c-5.832-2.224-12.07,0.203-13.931,5.421l-3.766,10.555
								l51.523,19.645l3.766-10.555C980.855,345.108,977.636,339.076,971.804,336.852z M963.312,333.861l-13.575-5.176
								c-1.387-0.529-2.106-2.128-1.598-3.554c0.509-1.426,2.06-2.16,3.448-1.631l13.575,5.176c1.388,0.529,2.107,2.128,1.598,3.554
								C966.251,333.657,964.7,334.39,963.312,333.861z"/>
						</g>
					</g>
				</g>
				<g style="opacity:0.47;">
					<path style="fill:#8B9498;" d="M908.059,383.781c-5.806-2.214-11.612-4.427-17.418-6.641c-0.49-0.187-1.06,0.081-1.24,0.586
						c-2.128,5.966-4.257,11.931-6.386,17.897c-0.18,0.504,0.083,1.091,0.575,1.278c5.806,2.214,11.612,4.427,17.418,6.641
						c0.266,0.101,0.504,0.079,0.703-0.015c0.014-0.005,0.028-0.012,0.041-0.018c0.008-0.004,0.016-0.008,0.023-0.012
						c0.201-0.093,0.374-0.265,0.473-0.541c2.128-5.966,4.257-11.931,6.385-17.897C908.814,384.555,908.551,383.969,908.059,383.781
						z M900.766,401.332c-5.201-1.983-10.402-3.966-15.603-5.949c1.907-5.344,3.814-10.688,5.72-16.033
						c5.201,1.983,10.402,3.966,15.603,5.949C904.58,390.644,902.673,395.988,900.766,401.332z"/>
					<path style="fill:#8B9498;" d="M896.253,416.872c-5.806-2.214-11.612-4.427-17.418-6.641c-0.49-0.187-1.06,0.081-1.24,0.586
						c-2.128,5.966-4.257,11.931-6.386,17.897c-0.18,0.504,0.083,1.091,0.575,1.278c5.806,2.214,11.612,4.427,17.418,6.641
						c0.266,0.102,0.504,0.079,0.703-0.015c0.014-0.005,0.027-0.012,0.041-0.018c0.008-0.004,0.016-0.008,0.023-0.012
						c0.201-0.093,0.374-0.265,0.473-0.541c2.129-5.966,4.257-11.931,6.386-17.897C897.007,417.646,896.744,417.059,896.253,416.872
						z M888.96,434.423c-5.201-1.983-10.402-3.966-15.603-5.949c1.907-5.344,3.814-10.688,5.72-16.033
						c5.201,1.983,10.402,3.966,15.603,5.949C892.773,423.734,890.867,429.078,888.96,434.423z"/>
					<path style="fill:#8B9498;" d="M884.446,449.962c-5.806-2.214-11.612-4.427-17.418-6.641c-0.49-0.187-1.059,0.081-1.24,0.586
						c-2.129,5.965-4.257,11.931-6.386,17.897c-0.18,0.504,0.083,1.091,0.575,1.278c5.806,2.214,11.612,4.427,17.418,6.641
						c0.266,0.102,0.504,0.079,0.703-0.015c0.014-0.005,0.028-0.012,0.041-0.018c0.008-0.004,0.016-0.008,0.023-0.012
						c0.201-0.093,0.374-0.265,0.473-0.541c2.129-5.966,4.257-11.931,6.386-17.897C885.2,450.736,884.937,450.15,884.446,449.962z
						 M877.153,467.513c-5.201-1.983-10.402-3.966-15.603-5.949c1.907-5.344,3.814-10.688,5.72-16.033
						c5.201,1.983,10.402,3.966,15.603,5.949C880.967,456.825,879.06,462.169,877.153,467.513z"/>
				</g>
				<polygon style="fill:#587BC9;" points="894.092,386.148 898.584,386.304 899.341,391.265 923.523,384.389 925.584,385.694 
					896.657,395.953 				"/>
				<polygon style="fill:#587BC9;" points="880.534,419.524 885.027,419.68 885.783,424.641 909.965,417.765 912.026,419.07 
					883.1,429.329 				"/>
				<polygon style="fill:#587BC9;" points="868.997,450.705 873.489,450.861 874.246,455.822 898.428,448.946 900.489,450.251 
					871.562,460.51 				"/>
				<polygon style="opacity:0.32;fill:#8B9498;" points="951.293,493.875 889.847,470.447 893.04,461.499 954.486,484.927 				"/>
				<polygon style="opacity:0.32;fill:#8B9498;" points="963.798,458.827 902.352,435.399 905.545,426.451 966.991,449.879 				"/>
				<polygon style="opacity:0.32;fill:#8B9498;" points="976.304,423.78 914.858,400.351 918.05,391.403 979.496,414.831 				"/>
			</g>
		</g>
		<g>
			<path style="fill:#EACDB0;" d="M1002.575,375.648c0.402,1.112,0.4,2.669-0.649,3.154c-0.629,0.29-1.351,0.045-2.029-0.079
				c-2.565-0.47-5.344,1.11-6.334,3.6c-1.167,2.932,0.182,6.461,2.539,8.489c2.358,2.028,5.498,2.806,8.553,3.085
				c1.918,0.175,4.062,0.099,5.467-1.261c0.722-0.699,1.154-1.655,1.528-2.602c1.922-4.863,3.524-11.207-0.194-15.63
				C1008.531,370.924,999.856,368.123,1002.575,375.648z"/>
			<path style="fill:#959596;" d="M1024.551,374.659c-0.385-0.498-0.828-0.962-1.333-1.385c-4.078-3.415-9.355-6.697-14.783-4.957
				c1.635,10.395,0.079,21.301-4.388,30.766c-0.353,0.749-0.73,1.618-0.402,2.379c0.617,1.43,5.075,2.449,6.415,2.51
				c5.908,0.27,12-2.774,14.563-7.278c1.504-2.642,1.833-5.586,2.12-8.458C1027.183,383.8,1027.384,378.317,1024.551,374.659z"/>
		</g>
	</g>
	<g>
		<g>
			<path style="fill:#EACDB0;" d="M489.244,407.657c0.024-0.308,0.051-0.625,0.134-0.901c0.779-2.571,2.298-3.266,3.553-5.437
				c0.559-0.968-0.17-3.992,1.691-3.734c0.687,0.095,2.348,0.658,3.811,0.88c2.134,0.324,4.98-1.049,7.094-2.717
				c2.841-2.241,5.811-4.704,8.359-7.485c5.351-5.842,10.842-13.16,15.299-20.314c-8.209-10.71-11.528-28.049-8.227-42.978
				c0.345-1.56,0.78-3.147,1.618-4.295c0.708-0.971,1.65-1.548,2.604-1.952c10.081-4.272,12.575,9.129,14.911,19.811
				c1.458,6.667,2.632,13.562,3.364,20.458c1.025,9.656-2.463,16.538-7.537,22.955c-5.377,6.801-10.912,13.557-17.237,18.641
				c-3.074,2.471-6.263,3.964-9.511,5.842c-3.21,1.855-2.434,3.729-4.943,6.351c-1.4,1.463-2.627,3.32-4.205,4.401
				c-2.83,1.939-5.726-0.135-8.386-1.603c-0.662-0.365-1.11-0.609-1.543-1.314c-0.704-1.145-0.76-2.602-0.853-4.045
				C489.184,409.37,489.178,408.505,489.244,407.657z"/>
		</g>
		<g>
			<path style="fill:#7DB5DB;" d="M546.176,342.078c0.739,5.285,1.301,10.512,1.7,15.577c0.594,7.551,1.077,15.795-1.929,22.151
				c-1.159,2.45-2.761,4.426-4.35,6.358c-7.536,9.161-15.237,18.061-23.095,26.689c-4.165-4.465-7.837-9.809-10.849-15.791
				c-0.845-1.678-1.672-3.578-1.541-5.616c0.194-3.028,2.34-4.974,4.258-6.457c3.123-2.414,6.246-4.829,9.369-7.243
				c1.013-0.784,2.112-1.707,2.457-3.241c0.225-1.001,0.08-2.083-0.078-3.108c-2.988-19.396-8.2-34.715-14.617-52.276
				c-2.828-7.742-5.715-15.794-5.947-24.462c-0.495-18.51,15.539-28.62,24.756-14.319
				C536.817,296.646,543.068,319.863,546.176,342.078z"/>
		</g>
	</g>
	<g>
		<path style="fill:#EACDB0;" d="M454.372,412.45c1.072-1.223,1.441-3.132,0.694-4.59c2.752,0.373,5.582,0.742,8.273,0.039
			c2.691-0.703,5.246-2.737,5.77-5.554c-3.307-4.063-8.23-6.674-13.351-7.083c-2.228-0.178-4.609,0.093-6.401,1.471
			C441.934,402.438,446.66,421.246,454.372,412.45z"/>
		<path style="fill:#EACDB0;" d="M449.809,404.253c1.711-1.425,3.854-2.162,5.965-2.792c2.279-0.681,4.829-1.463,5.975-3.609
			c0.98-1.835,0.599-4.134-0.162-6.078c-1.509-3.856-4.509-7.144-8.291-8.567c-3.781-1.424-8.301-0.823-11.395,1.836
			c-2.801,2.408-4.222,6.199-4.555,9.949c-0.551,6.194,1.565,17.35,9.758,15.072C447.115,407.772,448.08,405.693,449.809,404.253z"
			/>
	</g>
</g>
</svg>
